<svg id="Icons" height="512" viewBox="0 0 74 74" width="512" xmlns="http://www.w3.org/2000/svg">
    <path
        d="m64.409 58.11a1 1 0 0 1 -.805-1.593 32.931 32.931 0 0 0 4.496-30.582 1 1 0 1 1 1.884-.669 34.934 34.934 0 0 1 -4.768 32.434 1 1 0 0 1 -.807.41z"/>
    <path
        d="m48.4 70.03a1 1 0 0 1 -.325-1.946 25.938 25.938 0 0 0 2.658-1.078 1 1 0 1 1 .854 1.808 28.135 28.135 0 0 1 -2.861 1.162 1 1 0 0 1 -.326.054z"/>
    <path
        d="m36.919 72a34.73 34.73 0 0 1 -24.666-10.253 1 1 0 0 1 1.414-1.414 32.785 32.785 0 0 0 27.439 9.405 1 1 0 1 1 .248 1.984 35.66 35.66 0 0 1 -4.435.278z"/>
    <path
        d="m57.2 65.35a1 1 0 0 1 -.593-1.806 28.608 28.608 0 0 0 2.221-1.8 1 1 0 0 1 1.342 1.482 30.17 30.17 0 0 1 -2.379 1.935 1 1 0 0 1 -.591.189z"/>
    <path
        d="m4.344 47.488a1 1 0 0 1 -.961-.722 35 35 0 0 1 58.366-34.515 1 1 0 1 1 -1.414 1.415 33 33 0 0 0 -55.03 32.543 1 1 0 0 1 -.961 1.279z"/>
    <path d="m61.041 13.958h-8.013a1 1 0 0 1 0-2h7.013v-7.013a1 1 0 1 1 2 0v8.013a1 1 0 0 1 -1 1z"/>
    <path d="m12.958 70.055a1 1 0 0 1 -1-1v-8.013a1 1 0 0 1 1-1h8.014a1 1 0 1 1 0 2h-7.014v7.013a1 1 0 0 1 -1 1z"/>
    <path
        d="m39.455 60.667h-4.91a1.773 1.773 0 0 1 -1.762-1.512l-.583-3.794a18.941 18.941 0 0 1 -4.8-1.987l-3.093 2.27a1.774 1.774 0 0 1 -2.307-.175l-3.468-3.469a1.77 1.77 0 0 1 -.177-2.313l2.271-3.093a18.942 18.942 0 0 1 -1.988-4.8l-3.792-.579a1.771 1.771 0 0 1 -1.513-1.761v-4.91a1.771 1.771 0 0 1 1.514-1.761l3.791-.579a18.942 18.942 0 0 1 1.988-4.8l-2.27-3.092a1.771 1.771 0 0 1 .177-2.312l3.467-3.468a1.773 1.773 0 0 1 2.314-.176l3.093 2.27a18.941 18.941 0 0 1 4.8-1.987l.579-3.793a1.773 1.773 0 0 1 1.762-1.513h4.91a1.773 1.773 0 0 1 1.761 1.512l.579 3.794a18.941 18.941 0 0 1 4.8 1.987l3.093-2.27a1.771 1.771 0 0 1 2.309.176l3.467 3.468a1.77 1.77 0 0 1 .178 2.313l-2.271 3.094a18.92 18.92 0 0 1 1.987 4.8l3.793.579a1.77 1.77 0 0 1 1.512 1.761v4.91a1.77 1.77 0 0 1 -1.513 1.761l-3.792.579a18.92 18.92 0 0 1 -1.987 4.8l2.27 3.093a1.771 1.771 0 0 1 -.178 2.31l-3.466 3.468a1.774 1.774 0 0 1 -2.314.176l-3.093-2.27a18.941 18.941 0 0 1 -4.8 1.987l-.579 3.793a1.773 1.773 0 0 1 -1.759 1.513zm-4.724-2h4.537l.651-4.271a1 1 0 0 1 .77-.825 16.968 16.968 0 0 0 5.419-2.244 1 1 0 0 1 1.128.038l3.483 2.556 3.2-3.2-2.556-3.481a1 1 0 0 1 -.039-1.128 16.9 16.9 0 0 0 2.244-5.418 1 1 0 0 1 .826-.772l4.27-.651v-4.539l-4.27-.651a1 1 0 0 1 -.826-.772 16.9 16.9 0 0 0 -2.244-5.418 1 1 0 0 1 .039-1.128l2.556-3.481-3.2-3.2-3.483 2.556a1 1 0 0 1 -1.128.038 16.968 16.968 0 0 0 -5.419-2.244 1 1 0 0 1 -.77-.825l-.651-4.271h-4.537l-.651 4.264a1 1 0 0 1 -.77.825 16.968 16.968 0 0 0 -5.419 2.244 1 1 0 0 1 -1.128-.038l-3.483-2.552-3.2 3.2 2.556 3.482a1 1 0 0 1 .038 1.128 16.942 16.942 0 0 0 -2.245 5.419 1 1 0 0 1 -.824.771l-4.271.652v4.534l4.271.652a1 1 0 0 1 .824.771 16.942 16.942 0 0 0 2.245 5.419 1 1 0 0 1 -.038 1.128l-2.556 3.482 3.2 3.2 3.483-2.556a1 1 0 0 1 1.128-.038 16.968 16.968 0 0 0 5.419 2.244 1 1 0 0 1 .77.825z"/>
    <path
        d="m37 50.188a13.188 13.188 0 1 1 13.188-13.188 13.2 13.2 0 0 1 -13.188 13.188zm0-24.376a11.188 11.188 0 1 0 11.188 11.188 11.2 11.2 0 0 0 -11.188-11.188z"/>
</svg>
